<?xml version="1.0" standalone="no"?>
<!DOCTYPE svg PUBLIC "-//W3C//DTD SVG 20010904//EN"
 "http://www.w3.org/TR/2001/REC-SVG-20010904/DTD/svg10.dtd">
<svg version="1.0" xmlns="http://www.w3.org/2000/svg"
 width="500.000000pt" height="500.000000pt" viewBox="0 0 500.000000 500.000000"
 preserveAspectRatio="xMidYMid meet">
<metadata>
Created by potrace 1.14, written by Peter Selinger 2001-2017
</metadata>
<g transform="translate(0.000000,500.000000) scale(0.100000,-0.100000)"
fill="#000000" stroke="none">
<path d="M2407 4733 c-1 0 -38 -4 -82 -7 -44 -4 -91 -8 -105 -10 -14 -3 -59
-10 -100 -16 -41 -6 -88 -15 -105 -20 -16 -5 -41 -11 -55 -14 -20 -4 -74 -19
-145 -40 -60 -18 -265 -103 -325 -134 -262 -138 -395 -236 -595 -437 -159
-159 -291 -339 -392 -535 -48 -95 -103 -214 -103 -226 0 -3 -6 -20 -14 -37
-11 -25 -57 -164 -61 -187 -1 -3 -11 -48 -23 -100 -12 -52 -23 -111 -26 -130
-3 -19 -9 -57 -13 -85 -17 -105 -9 -534 12 -648 120 -646 462 -1169 996 -1519
222 -146 528 -274 749 -315 14 -2 45 -9 70 -14 25 -6 65 -13 90 -16 25 -2 71
-8 104 -12 61 -8 436 -6 471 2 11 3 43 8 70 11 562 74 1097 384 1461 846 201
255 362 599 428 915 14 68 19 99 36 215 15 106 9 457 -10 580 -62 395 -205
735 -439 1045 -65 85 -94 118 -201 225 -116 115 -143 139 -242 213 -292 218
-655 370 -1005 423 -21 3 -48 7 -61 9 -63 10 -378 25 -385 18z"/>
</g>
</svg>
